<svg width="34" height="34" viewBox="0 0 34 34" fill="none" xmlns="http://www.w3.org/2000/svg">
<path d="M23.503 12.5304C23.503 14.192 22.8429 15.7856 21.668 16.9606C20.493 18.1355 18.8994 18.7956 17.2378 18.7956C15.5761 18.7956 13.9825 18.1355 12.8076 16.9606C11.6326 15.7856 10.9725 14.192 10.9725 12.5304C10.9725 10.8687 11.6326 9.27515 12.8076 8.10018C13.9825 6.92522 15.5761 6.26514 17.2378 6.26514C18.8994 6.26514 20.493 6.92522 21.668 8.10018C22.8429 9.27515 23.503 10.8687 23.503 12.5304Z" fill="#333133"/>
<path fill-rule="evenodd" clip-rule="evenodd" d="M0.530518 16.7073C0.530518 12.2763 2.29075 8.02669 5.42398 4.89346C8.55721 1.76023 12.8068 0 17.2378 0C21.6689 0 25.9185 1.76023 29.0517 4.89346C32.1849 8.02669 33.9452 12.2763 33.9452 16.7073C33.9452 21.1384 32.1849 25.3879 29.0517 28.5212C25.9185 31.6544 21.6689 33.4146 17.2378 33.4146C12.8068 33.4146 8.55721 31.6544 5.42398 28.5212C2.29075 25.3879 0.530518 21.1384 0.530518 16.7073ZM17.2378 2.08841C14.4848 2.08856 11.7878 2.86606 9.45724 4.33143C7.12665 5.7968 5.25719 7.89047 4.06404 10.3715C2.87089 12.8525 2.40254 15.62 2.71291 18.3554C3.02327 21.0908 4.09973 23.6831 5.81838 25.8337C7.30116 23.4445 10.5654 20.8841 17.2378 20.8841C23.9103 20.8841 27.1724 23.4425 28.6573 25.8337C30.3759 23.6831 31.4524 21.0908 31.7628 18.3554C32.0731 15.62 31.6048 12.8525 30.4116 10.3715C29.2185 7.89047 27.349 5.7968 25.0184 4.33143C22.6878 2.86606 19.9908 2.08856 17.2378 2.08841Z" fill="#333133"/>
</svg>
